<mxfile host="Electron" modified="2023-10-16T09:30:22.856Z" agent="Mozilla/5.0 (Windows NT 10.0; Win64; x64) AppleWebKit/537.36 (KHTML, like Gecko) draw.io/22.0.2 Chrome/114.0.5735.289 Electron/25.8.4 Safari/537.36" etag="asI45E59G68Aq6xEBsqE" version="22.0.2" type="device">
  <diagram name="Page-1" id="2YBvvXClWsGukQMizWep">
    <mxGraphModel dx="1480" dy="934" grid="1" gridSize="10" guides="1" tooltips="1" connect="1" arrows="1" fold="1" page="1" pageScale="1" pageWidth="1700" pageHeight="1100" math="0" shadow="0">
      <root>
        <mxCell id="0" />
        <mxCell id="1" parent="0" />
        <mxCell id="aM9ryv3xv72pqoxQDRHE-1" value=":Main" style="shape=umlLifeline;perimeter=lifelinePerimeter;whiteSpace=wrap;html=1;container=0;dropTarget=0;collapsible=0;recursiveResize=0;outlineConnect=0;portConstraint=eastwest;newEdgeStyle={&quot;edgeStyle&quot;:&quot;elbowEdgeStyle&quot;,&quot;elbow&quot;:&quot;vertical&quot;,&quot;curved&quot;:0,&quot;rounded&quot;:0};" parent="1" vertex="1">
          <mxGeometry x="442.7" y="140" width="100" height="940" as="geometry" />
        </mxCell>
        <mxCell id="aM9ryv3xv72pqoxQDRHE-2" value="" style="html=1;points=[];perimeter=orthogonalPerimeter;outlineConnect=0;targetShapes=umlLifeline;portConstraint=eastwest;newEdgeStyle={&quot;edgeStyle&quot;:&quot;elbowEdgeStyle&quot;,&quot;elbow&quot;:&quot;vertical&quot;,&quot;curved&quot;:0,&quot;rounded&quot;:0};" parent="aM9ryv3xv72pqoxQDRHE-1" vertex="1">
          <mxGeometry x="45" y="70" width="10" height="870" as="geometry" />
        </mxCell>
        <mxCell id="x97LOlufpmgzOkut8exC-13" value="" style="html=1;points=[];perimeter=orthogonalPerimeter;outlineConnect=0;targetShapes=umlLifeline;portConstraint=eastwest;newEdgeStyle={&quot;edgeStyle&quot;:&quot;elbowEdgeStyle&quot;,&quot;elbow&quot;:&quot;vertical&quot;,&quot;curved&quot;:0,&quot;rounded&quot;:0};" parent="aM9ryv3xv72pqoxQDRHE-1" vertex="1">
          <mxGeometry x="42.5" y="460" width="15" height="30" as="geometry" />
        </mxCell>
        <mxCell id="QFeOdhopfZJ-Y9U7uYI9-30" value="" style="html=1;points=[];perimeter=orthogonalPerimeter;outlineConnect=0;targetShapes=umlLifeline;portConstraint=eastwest;newEdgeStyle={&quot;edgeStyle&quot;:&quot;elbowEdgeStyle&quot;,&quot;elbow&quot;:&quot;vertical&quot;,&quot;curved&quot;:0,&quot;rounded&quot;:0};" parent="aM9ryv3xv72pqoxQDRHE-1" vertex="1">
          <mxGeometry x="41.15" y="680" width="17.7" height="40" as="geometry" />
        </mxCell>
        <mxCell id="xcwwHYu7if0AnBbkTVhb-2" value="" style="html=1;points=[];perimeter=orthogonalPerimeter;outlineConnect=0;targetShapes=umlLifeline;portConstraint=eastwest;newEdgeStyle={&quot;edgeStyle&quot;:&quot;elbowEdgeStyle&quot;,&quot;elbow&quot;:&quot;vertical&quot;,&quot;curved&quot;:0,&quot;rounded&quot;:0};" parent="aM9ryv3xv72pqoxQDRHE-1" vertex="1">
          <mxGeometry x="42.14999999999998" y="130" width="15" height="30" as="geometry" />
        </mxCell>
        <mxCell id="QFeOdhopfZJ-Y9U7uYI9-1" value="" style="html=1;points=[];perimeter=orthogonalPerimeter;outlineConnect=0;targetShapes=umlLifeline;portConstraint=eastwest;newEdgeStyle={&quot;edgeStyle&quot;:&quot;elbowEdgeStyle&quot;,&quot;elbow&quot;:&quot;vertical&quot;,&quot;curved&quot;:0,&quot;rounded&quot;:0};" parent="aM9ryv3xv72pqoxQDRHE-1" vertex="1">
          <mxGeometry x="42.15" y="250" width="15" height="20" as="geometry" />
        </mxCell>
        <mxCell id="-7s7DO6yMO1ayWv2w_Kj-7" value="" style="html=1;points=[];perimeter=orthogonalPerimeter;outlineConnect=0;targetShapes=umlLifeline;portConstraint=eastwest;newEdgeStyle={&quot;edgeStyle&quot;:&quot;elbowEdgeStyle&quot;,&quot;elbow&quot;:&quot;vertical&quot;,&quot;curved&quot;:0,&quot;rounded&quot;:0};" vertex="1" parent="aM9ryv3xv72pqoxQDRHE-1">
          <mxGeometry x="42.5" y="540" width="15" height="30" as="geometry" />
        </mxCell>
        <mxCell id="-7s7DO6yMO1ayWv2w_Kj-8" value="" style="html=1;points=[];perimeter=orthogonalPerimeter;outlineConnect=0;targetShapes=umlLifeline;portConstraint=eastwest;newEdgeStyle={&quot;edgeStyle&quot;:&quot;elbowEdgeStyle&quot;,&quot;elbow&quot;:&quot;vertical&quot;,&quot;curved&quot;:0,&quot;rounded&quot;:0};" vertex="1" parent="aM9ryv3xv72pqoxQDRHE-1">
          <mxGeometry x="42.5" y="870" width="15" height="30" as="geometry" />
        </mxCell>
        <mxCell id="aM9ryv3xv72pqoxQDRHE-5" value="Calculator" style="shape=umlLifeline;perimeter=lifelinePerimeter;whiteSpace=wrap;html=1;container=0;dropTarget=0;collapsible=0;recursiveResize=0;outlineConnect=0;portConstraint=eastwest;newEdgeStyle={&quot;edgeStyle&quot;:&quot;elbowEdgeStyle&quot;,&quot;elbow&quot;:&quot;vertical&quot;,&quot;curved&quot;:0,&quot;rounded&quot;:0};" parent="1" vertex="1">
          <mxGeometry x="832.7" y="70" width="100" height="1010" as="geometry" />
        </mxCell>
        <mxCell id="x97LOlufpmgzOkut8exC-27" value="" style="html=1;points=[];perimeter=orthogonalPerimeter;outlineConnect=0;targetShapes=umlLifeline;portConstraint=eastwest;newEdgeStyle={&quot;edgeStyle&quot;:&quot;elbowEdgeStyle&quot;,&quot;elbow&quot;:&quot;vertical&quot;,&quot;curved&quot;:0,&quot;rounded&quot;:0};" parent="aM9ryv3xv72pqoxQDRHE-5" vertex="1">
          <mxGeometry x="45" y="700" width="10" height="50" as="geometry" />
        </mxCell>
        <mxCell id="OscVhzDGLUxt7YP8PD-C-7" value="" style="html=1;points=[];perimeter=orthogonalPerimeter;outlineConnect=0;targetShapes=umlLifeline;portConstraint=eastwest;newEdgeStyle={&quot;edgeStyle&quot;:&quot;elbowEdgeStyle&quot;,&quot;elbow&quot;:&quot;vertical&quot;,&quot;curved&quot;:0,&quot;rounded&quot;:0};" parent="aM9ryv3xv72pqoxQDRHE-5" vertex="1">
          <mxGeometry x="45" y="450" width="10" height="80" as="geometry" />
        </mxCell>
        <mxCell id="QFeOdhopfZJ-Y9U7uYI9-2" value="" style="html=1;points=[];perimeter=orthogonalPerimeter;outlineConnect=0;targetShapes=umlLifeline;portConstraint=eastwest;newEdgeStyle={&quot;edgeStyle&quot;:&quot;elbowEdgeStyle&quot;,&quot;elbow&quot;:&quot;vertical&quot;,&quot;curved&quot;:0,&quot;rounded&quot;:0};" parent="aM9ryv3xv72pqoxQDRHE-5" vertex="1">
          <mxGeometry x="45" y="150" width="10" height="50" as="geometry" />
        </mxCell>
        <mxCell id="aM9ryv3xv72pqoxQDRHE-7" value="calDelta(a,b,c)" style="html=1;verticalAlign=bottom;endArrow=block;edgeStyle=elbowEdgeStyle;elbow=vertical;curved=0;rounded=0;" parent="1" source="aM9ryv3xv72pqoxQDRHE-2" edge="1">
          <mxGeometry x="0.0017" relative="1" as="geometry">
            <mxPoint x="597.7" y="230" as="sourcePoint" />
            <Array as="points">
              <mxPoint x="582.7" y="220" />
            </Array>
            <mxPoint as="offset" />
            <mxPoint x="882.7" y="220" as="targetPoint" />
          </mxGeometry>
        </mxCell>
        <mxCell id="OscVhzDGLUxt7YP8PD-C-1" value="alt" style="shape=umlFrame;whiteSpace=wrap;html=1;pointerEvents=0;" parent="1" vertex="1">
          <mxGeometry x="442.7" y="330" width="600" height="750" as="geometry" />
        </mxCell>
        <mxCell id="OscVhzDGLUxt7YP8PD-C-5" value="" style="endArrow=none;dashed=1;html=1;rounded=0;exitX=0.002;exitY=0.54;exitDx=0;exitDy=0;exitPerimeter=0;entryX=1.007;entryY=0.179;entryDx=0;entryDy=0;entryPerimeter=0;" parent="1" target="OscVhzDGLUxt7YP8PD-C-1" edge="1">
          <mxGeometry width="50" height="50" relative="1" as="geometry">
            <mxPoint x="441.29999999999984" y="463.9200000000001" as="sourcePoint" />
            <mxPoint x="1004.1000000000001" y="460" as="targetPoint" />
          </mxGeometry>
        </mxCell>
        <mxCell id="OscVhzDGLUxt7YP8PD-C-6" value="else if [delta == 0]" style="text;html=1;strokeColor=none;fillColor=none;align=center;verticalAlign=middle;whiteSpace=wrap;rounded=0;" parent="1" vertex="1">
          <mxGeometry x="452.7" y="480" width="100" height="30" as="geometry" />
        </mxCell>
        <mxCell id="OscVhzDGLUxt7YP8PD-C-14" value="return x" style="html=1;verticalAlign=bottom;endArrow=open;dashed=1;endSize=8;curved=0;rounded=0;" parent="1" edge="1">
          <mxGeometry relative="1" as="geometry">
            <mxPoint x="880.2" y="600" as="sourcePoint" />
            <mxPoint x="499.7" y="600" as="targetPoint" />
          </mxGeometry>
        </mxCell>
        <mxCell id="OscVhzDGLUxt7YP8PD-C-15" value="" style="endArrow=none;dashed=1;html=1;rounded=0;exitX=0.002;exitY=0.54;exitDx=0;exitDy=0;exitPerimeter=0;entryX=1.007;entryY=0.179;entryDx=0;entryDy=0;entryPerimeter=0;" parent="1" edge="1">
          <mxGeometry width="50" height="50" relative="1" as="geometry">
            <mxPoint x="439.9999999999999" y="720" as="sourcePoint" />
            <mxPoint x="1045.3999999999999" y="720.0799999999999" as="targetPoint" />
          </mxGeometry>
        </mxCell>
        <mxCell id="OscVhzDGLUxt7YP8PD-C-16" value="else if [delta &amp;gt; 0]" style="text;html=1;strokeColor=none;fillColor=none;align=center;verticalAlign=middle;whiteSpace=wrap;rounded=0;" parent="1" vertex="1">
          <mxGeometry x="447.7" y="740" width="110" height="30" as="geometry" />
        </mxCell>
        <mxCell id="OscVhzDGLUxt7YP8PD-C-24" value="return x2" style="html=1;verticalAlign=bottom;endArrow=open;dashed=1;endSize=8;curved=0;rounded=0;" parent="1" edge="1">
          <mxGeometry relative="1" as="geometry">
            <mxPoint x="880.2" y="942" as="sourcePoint" />
            <mxPoint x="499.7" y="942" as="targetPoint" />
          </mxGeometry>
        </mxCell>
        <mxCell id="OscVhzDGLUxt7YP8PD-C-25" value="" style="html=1;points=[];perimeter=orthogonalPerimeter;outlineConnect=0;targetShapes=umlLifeline;portConstraint=eastwest;newEdgeStyle={&quot;edgeStyle&quot;:&quot;elbowEdgeStyle&quot;,&quot;elbow&quot;:&quot;vertical&quot;,&quot;curved&quot;:0,&quot;rounded&quot;:0};" parent="1" vertex="1">
          <mxGeometry x="483.35" y="942" width="17.7" height="38" as="geometry" />
        </mxCell>
        <mxCell id="OscVhzDGLUxt7YP8PD-C-3" value="if [delta &amp;lt; 0]" style="text;html=1;align=center;verticalAlign=middle;resizable=0;points=[];autosize=1;strokeColor=none;fillColor=none;" parent="1" vertex="1">
          <mxGeometry x="442.7" y="360" width="90" height="30" as="geometry" />
        </mxCell>
        <mxCell id="QFeOdhopfZJ-Y9U7uYI9-5" value="" style="endArrow=classic;html=1;rounded=0;" parent="1" edge="1">
          <mxGeometry width="50" height="50" relative="1" as="geometry">
            <mxPoint x="499.7" y="520" as="sourcePoint" />
            <mxPoint x="884.2" y="520" as="targetPoint" />
          </mxGeometry>
        </mxCell>
        <mxCell id="QFeOdhopfZJ-Y9U7uYI9-6" value="set_x(a,b,c))" style="edgeLabel;html=1;align=center;verticalAlign=middle;resizable=0;points=[];" parent="QFeOdhopfZJ-Y9U7uYI9-5" vertex="1" connectable="0">
          <mxGeometry x="-0.0492" y="2" relative="1" as="geometry">
            <mxPoint as="offset" />
          </mxGeometry>
        </mxCell>
        <mxCell id="QFeOdhopfZJ-Y9U7uYI9-17" value="" style="endArrow=classic;html=1;rounded=0;" parent="1" edge="1">
          <mxGeometry width="50" height="50" relative="1" as="geometry">
            <mxPoint x="501.04999999999995" y="410" as="sourcePoint" />
            <mxPoint x="501.04999999999995" y="440" as="targetPoint" />
            <Array as="points">
              <mxPoint x="581.05" y="410" />
              <mxPoint x="581.05" y="440" />
            </Array>
          </mxGeometry>
        </mxCell>
        <mxCell id="QFeOdhopfZJ-Y9U7uYI9-18" value="console.log(noSolutionMessage)" style="edgeLabel;html=1;align=center;verticalAlign=middle;resizable=0;points=[];" parent="QFeOdhopfZJ-Y9U7uYI9-17" vertex="1" connectable="0">
          <mxGeometry x="0.0386" y="6" relative="1" as="geometry">
            <mxPoint as="offset" />
          </mxGeometry>
        </mxCell>
        <mxCell id="QFeOdhopfZJ-Y9U7uYI9-19" value="" style="endArrow=classic;html=1;rounded=0;" parent="1" edge="1">
          <mxGeometry width="50" height="50" relative="1" as="geometry">
            <mxPoint x="497.7" y="770" as="sourcePoint" />
            <mxPoint x="882.2" y="770" as="targetPoint" />
          </mxGeometry>
        </mxCell>
        <mxCell id="QFeOdhopfZJ-Y9U7uYI9-20" value="set_x1(a,b,c))" style="edgeLabel;html=1;align=center;verticalAlign=middle;resizable=0;points=[];" parent="QFeOdhopfZJ-Y9U7uYI9-19" vertex="1" connectable="0">
          <mxGeometry x="-0.0492" y="2" relative="1" as="geometry">
            <mxPoint as="offset" />
          </mxGeometry>
        </mxCell>
        <mxCell id="QFeOdhopfZJ-Y9U7uYI9-21" value="return x1" style="html=1;verticalAlign=bottom;endArrow=open;dashed=1;endSize=8;curved=0;rounded=0;" parent="1" edge="1">
          <mxGeometry relative="1" as="geometry">
            <mxPoint x="878.2" y="820" as="sourcePoint" />
            <mxPoint x="497.7" y="820" as="targetPoint" />
          </mxGeometry>
        </mxCell>
        <mxCell id="QFeOdhopfZJ-Y9U7uYI9-22" value="" style="endArrow=classic;html=1;rounded=0;" parent="1" edge="1">
          <mxGeometry width="50" height="50" relative="1" as="geometry">
            <mxPoint x="497.7" y="892" as="sourcePoint" />
            <mxPoint x="882.2" y="892" as="targetPoint" />
          </mxGeometry>
        </mxCell>
        <mxCell id="QFeOdhopfZJ-Y9U7uYI9-23" value="set_x2(a,b,c))" style="edgeLabel;html=1;align=center;verticalAlign=middle;resizable=0;points=[];" parent="QFeOdhopfZJ-Y9U7uYI9-22" vertex="1" connectable="0">
          <mxGeometry x="-0.0492" y="2" relative="1" as="geometry">
            <mxPoint as="offset" />
          </mxGeometry>
        </mxCell>
        <mxCell id="QFeOdhopfZJ-Y9U7uYI9-29" value="" style="html=1;points=[];perimeter=orthogonalPerimeter;outlineConnect=0;targetShapes=umlLifeline;portConstraint=eastwest;newEdgeStyle={&quot;edgeStyle&quot;:&quot;elbowEdgeStyle&quot;,&quot;elbow&quot;:&quot;vertical&quot;,&quot;curved&quot;:0,&quot;rounded&quot;:0};" parent="1" vertex="1">
          <mxGeometry x="877.7" y="892" width="10" height="50" as="geometry" />
        </mxCell>
        <mxCell id="QFeOdhopfZJ-Y9U7uYI9-34" value="" style="endArrow=none;dashed=1;html=1;rounded=0;entryX=0.5;entryY=1;entryDx=0;entryDy=0;" parent="1" edge="1">
          <mxGeometry width="50" height="50" relative="1" as="geometry">
            <mxPoint x="270" y="1018" as="sourcePoint" />
            <mxPoint x="270.0000000000002" y="1017.9999999999998" as="targetPoint" />
          </mxGeometry>
        </mxCell>
        <mxCell id="xcwwHYu7if0AnBbkTVhb-1" value="&amp;nbsp;return delta" style="html=1;verticalAlign=bottom;endArrow=open;dashed=1;endSize=8;curved=0;rounded=0;" parent="1" edge="1">
          <mxGeometry relative="1" as="geometry">
            <mxPoint x="877.7" y="270" as="sourcePoint" />
            <mxPoint x="487.9" y="270" as="targetPoint" />
          </mxGeometry>
        </mxCell>
        <mxCell id="-7s7DO6yMO1ayWv2w_Kj-1" value="" style="endArrow=classic;html=1;rounded=0;" edge="1" parent="1">
          <mxGeometry width="50" height="50" relative="1" as="geometry">
            <mxPoint x="501.04999999999995" y="640" as="sourcePoint" />
            <mxPoint x="501.04999999999995" y="670" as="targetPoint" />
            <Array as="points">
              <mxPoint x="581.05" y="640" />
              <mxPoint x="581.05" y="670" />
            </Array>
          </mxGeometry>
        </mxCell>
        <mxCell id="-7s7DO6yMO1ayWv2w_Kj-2" value="console.log(x)" style="edgeLabel;html=1;align=center;verticalAlign=middle;resizable=0;points=[];" vertex="1" connectable="0" parent="-7s7DO6yMO1ayWv2w_Kj-1">
          <mxGeometry x="0.0386" y="6" relative="1" as="geometry">
            <mxPoint as="offset" />
          </mxGeometry>
        </mxCell>
        <mxCell id="-7s7DO6yMO1ayWv2w_Kj-5" value="" style="endArrow=classic;html=1;rounded=0;" edge="1" parent="1">
          <mxGeometry width="50" height="50" relative="1" as="geometry">
            <mxPoint x="501.04999999999995" y="980" as="sourcePoint" />
            <mxPoint x="501.04999999999995" y="1010" as="targetPoint" />
            <Array as="points">
              <mxPoint x="581.05" y="980" />
              <mxPoint x="581.05" y="1010" />
            </Array>
          </mxGeometry>
        </mxCell>
        <mxCell id="-7s7DO6yMO1ayWv2w_Kj-6" value="console.log(x1+x2)" style="edgeLabel;html=1;align=center;verticalAlign=middle;resizable=0;points=[];" vertex="1" connectable="0" parent="-7s7DO6yMO1ayWv2w_Kj-5">
          <mxGeometry x="0.0386" y="6" relative="1" as="geometry">
            <mxPoint as="offset" />
          </mxGeometry>
        </mxCell>
        <mxCell id="-7s7DO6yMO1ayWv2w_Kj-9" value="" style="html=1;points=[];perimeter=orthogonalPerimeter;outlineConnect=0;targetShapes=umlLifeline;portConstraint=eastwest;newEdgeStyle={&quot;edgeStyle&quot;:&quot;elbowEdgeStyle&quot;,&quot;elbow&quot;:&quot;vertical&quot;,&quot;curved&quot;:0,&quot;rounded&quot;:0};" vertex="1" parent="1">
          <mxGeometry x="485.2" y="440" width="15" height="20" as="geometry" />
        </mxCell>
      </root>
    </mxGraphModel>
  </diagram>
</mxfile>
